# xmcd
#
# Track frame offsets:
#	150
#	15400
#	35095
#	52948
#	69494
#	88760
#	104848
#	125373
#	144642
#	163599
#	180111
#	200920
#
# Disc length: 2877
#
# Revision: 1
# Processed by: cddbd v1.5.1PL0 Copyright (c) Steve Scherf et al.
# Submitted via: dBpowerAMP V4.0
# Normalized: r0:TRMNUM
#
DISCID=a50b3b0c
DTITLE=Vudtinun Bhirombhakdi - Inspire
DYEAR=2000
DGENRE=Easy Listening
TTITLE0=ของขวัญสำหรับเธอ
TTITLE1=แน่ใจหรือ
TTITLE2=เธอคนเดียวเท่านั้น
TTITLE3=จนวันสุดท้าย
TTITLE4=รักฉันบ้างหรือเปล่า (2001)
TTITLE5=ไม่บังเอิญ
TTITLE6=เธอกับดาว (2001)
TTITLE7=อย่าเกรงใจเลย
TTITLE8=ไม่อยากเห็นเธอ (กับเขา)
TTITLE9=ภาษาตา
TTITLE10=นานแค่ไหนจะรอ
TTITLE11=เคียงกัน
EXTD=[J][@][Y] -- Inspire
EXTT0=
EXTT1=
EXTT2=
EXTT3=
EXTT4=
EXTT5=
EXTT6=
EXTT7=
EXTT8=
EXTT9=
EXTT10=
EXTT11=
PLAYORDER=
